<svg width="18" height="21" viewBox="0 0 18 21" fill="none" xmlns="http://www.w3.org/2000/svg">
<path d="M16.5 12.75V10.125C16.5 8.26104 14.989 6.75 13.125 6.75H11.625C11.0037 6.75 10.5 6.24632 10.5 5.625V4.125C10.5 2.26104 8.98896 0.75 7.125 0.75H5.25M5.25 13.5H12.75M5.25 16.5H9M7.5 0.75H2.625C2.00368 0.75 1.5 1.25368 1.5 1.875V19.125C1.5 19.7463 2.00368 20.25 2.625 20.25H15.375C15.9963 20.25 16.5 19.7463 16.5 19.125V9.75C16.5 4.77944 12.4706 0.75 7.5 0.75Z" stroke="#FF2957" stroke-width="1.5" stroke-linecap="round" stroke-linejoin="round"/>
</svg>
